<?xml version="1.0" standalone="no"?><!DOCTYPE svg PUBLIC "-//W3C//DTD SVG 1.1//EN" "http://www.w3.org/Graphics/SVG/1.1/DTD/svg11.dtd" ><svg xmlns="http://www.w3.org/2000/svg"><metadata></metadata><defs><font id="Google:Roboto Condensed Bold Italic:2016" horiz-adv-x="1559"><font-face font-family="Roboto Condensed" font-weight="700" font-stretch="normal" units-per-em="2048" panose-1="2 0 0 0 0 0 0 0 0 0" ascent="1900" descent="-500" x-height="0" bbox="-223 -465 1584 1849" underline-thickness="100" underline-position="-150" unicode-range="U+0021-2122" /><missing-glyph horiz-adv-x="813" d="M104 0 l0 1456 l595 0 l0 -1456 l-595 0 ZM184 1402 l216 -605 l215 605 l-431 0 ZM424 728 l229 -642 l0 1284 l-229 -642 ZM149 1362 l0 -1268 l226 634 l-226 634 ZM184 54 l431 0 l-215 605 l-216 -605 Z" /><glyph glyph-name="exclam" unicode="!" d="M562 1456 l-207 -1007 l-228 0 l141 1007 l294 0 ZM36 132 q-1 66 41 113 q42 47 109 49 q65 1 107 -43 q42 -44 43 -108 q0 -65 -41.5 -112.5 q-41.5 -47.5 -109.5 -48.5 q-65 -1 -107 42.5 q-42 43.5 -42 107.5 Z" /><glyph glyph-name="quotedbl" unicode="&quot;" d="M382 1386 l-100 -400 l-163 0 l87 551 l200 0 l-24 -151 ZM698 1386 l-99 -400 l-161 0 l86 551 l198 0 l-24 -151 Z" /><glyph glyph-name="numbersign" unicode="#" d="M384 0 l130 410 l-123 0 l-130 -410 l-176 0 l130 410 l-177 0 l31 174 l200 0 l89 282 l-180 0 l31 174 l204 0 l132 416 l174 0 l-131 -416 l123 0 l132 416 l176 0 l-131 -416 l171 0 l-30 -174 l-196 0 l-89 -282 l174 0 l-30 -174 l-199 0 l-129 -410 l-176 0 ZM444 584 l124 0 l90 282 l-124 0 l-90 -282 Z" /><glyph glyph-name="dollar" unicode="$" d="M878 393 q-12 -170 -113.5 -278 q-101.5 -108 -268.5 -131 l-38 -200 l-147 0 l38 202 q-173 36 -233 175 q-60 139 -52 297 l277 0 q-2 -42 1 -99.5 q3 -57.5 27.5 -101 q24.5 -43.5 85.5 -43.5 q73 0 109.5 57 q36.5 57 43.5 121 q16 143 -100 214 q-139 85 -225 181 q-86 96 -74 275 q12 168 114 278 q102 110 268 133 l39 215 l148 0 l-41 -221 q155 -43 203 -181 q48 -138 41 -280 l-276 0 q2 33 1 89 q-1 56 -19.5 101.5 q-18.5 45.5 -70.5 46.5 q-70 2 -100.5 -60.5 q-30.5 -62.5 -36.5 -119.5 q-14 -133 104 -209 q137 -88 222.5 -185 q85.5 -97 72.5 -276 Z" /><glyph glyph-name="percent" unicode="%" d="M183 1099 l7 76 q12 123 86.5 214 q74.5 91 207.5 89 q128 -3 186.5 -93.5 q58.5 -90.5 50.5 -208.5 l-6 -77 q-12 -122 -87 -212 q-75 -90 -207 -88 q-127 3 -186 93.5 q-59 90.5 -52 206.5 ZM1104 1238 l-770 -1126 l-128 83 l768 1127 l130 -84 ZM374 1176 l-8 -80 q-2 -35 6.5 -82 q8.5 -47 56.5 -48 q50 -1 74 45.5 q24 46.5 29 87.5 l9 78 q3 36 -5.5 84 q-8.5 48 -58.5 49 q-51 2 -74.5 -45.5 q-23.5 -47.5 -28.5 -88.5 ZM599 280 l7 77 q11 122 86.5 213 q75.5 91 207.5 88 q128 -3 186.5 -93.5 q58.5 -90.5 50.5 -207.5 l-6 -77 q-13 -122 -86.5 -213 q-73.5 -91 -206.5 -88 q-127 3 -186.5 93.5 q-59.5 90.5 -52.5 207.5 ZM789 357 l-9 -79 q-2 -34 8.5 -81.5 q10.5 -47.5 56.5 -49.5 q55 -3 76.5 43 q21.5 46 26.5 90 l9 78 q3 35 -5.5 83 q-8.5 48 -57.5 49 q-52 2 -76 -44.5 q-24 -46.5 -29 -88.5 Z" /><glyph glyph-name="ampersand" unicode="&amp;" d="M721 0 l-37 75 q-68 -45 -142.5 -71 q-74.5 -26 -156.5 -24 q-173 3 -266.5 120.5 q-93.5 117.5 -81.5 284.5 q10 133 90.5 223 q80.5 90 183.5 163 q-29 76 -51 154 q-22 78 -15 160 q12 157 111 277 q99 120 268 115 q136 -3 214 -102 q78 -99 71 -230 q-7 -105 -61 -187 q-54 -82 -136 -144 l-95 -69 l133 -253 q54 107 71 223 l230 1 q-10 -125 -49 -241.5 q-39 -116.5 -121 -213.5 l135 -261 l-295 0 ZM487 1091 q-5 -44 9.5 -86 q14.5 -42 32.5 -82 l46 35 q42 33 68.5 73.5 q26.5 40.5 30.5 94.5 q3 36 -11.5 76.5 q-14.5 40.5 -59.5 40.5 q-56 0 -83.5 -53 q-27.5 -53 -32.5 -99 ZM321 401 q-6 -52 10 -117.5 q16 -65.5 85 -68.5 q42 -2 81 15 q39 17 75 37 l-162 326 l-11 -8 q-34 -33 -53 -85.5 q-19 -52.5 -25 -98.5 Z" /><glyph glyph-name="quotesingle" unicode="&#39;" d="M390 1375 l-90 -391 l-180 0 l87 552 l208 0 l-25 -161 Z" /><glyph glyph-name="parenleft" unicode="(" d="M113 565 l3 23 q26 183 90.5 387.5 q64.5 204.5 180.5 378.5 q116 174 295 265 l42 -161 q-180 -167 -261 -398 q-81 -231 -115 -467 l-4 -27 q-17 -123 -29.5 -287.5 q-12.5 -164.5 12.5 -321.5 q25 -157 121 -260 l-63 -152 q-115 76 -178 199 q-63 123 -88 268 q-25 145 -23.5 289 q1.5 144 17.5 264 Z" /><glyph glyph-name="parenright" unicode=")" d="M539 597 l-3 -24 q-26 -182 -94 -388.5 q-68 -206.5 -187.5 -380.5 q-119.5 -174 -299.5 -262 l-43 158 q178 170 260.5 400.5 q82.5 230.5 116.5 467.5 l3 27 q17 121 29 285.5 q12 164.5 -12.5 322 q-24.5 157.5 -118.5 259.5 l63 154 q115 -75 180.5 -197.5 q65.5 -122.5 93.5 -267.5 q28 -145 28 -289.5 q0 -144.5 -16 -264.5 Z" /><glyph glyph-name="asterisk" unicode="*" d="M136 700 l255 268 l-290 89 l87 173 l285 -129 l43 355 l192 0 l-81 -348 l309 120 l28 -193 l-329 -89 l160 -271 l-163 -105 l-126 292 l-223 -278 l-147 116 Z" /><glyph glyph-name="plus" unicode="+" d="M869 554 l-274 0 l-71 -408 l-261 0 l71 408 l-280 0 l46 263 l279 0 l68 389 l261 0 l-68 -389 l275 0 l-46 -263 Z" /><glyph glyph-name="comma" unicode="," d="M314 247 l-32 -197 q-20 -124 -87 -232 q-67 -108 -166 -186 l-146 80 q48 79 93 154 q45 75 62 168 l37 213 l239 0 Z" /><glyph glyph-name="hyphen" unicode="-" d="M620 742 l-42 -235 l-476 0 l42 235 l476 0 Z" /><glyph glyph-name="period" unicode="." d="M43 138 q-1 70 45.5 116 q46.5 46 116.5 47 q66 1 111.5 -41.5 q45.5 -42.5 46.5 -109.5 q1 -70 -45.5 -115.5 q-46.5 -45.5 -115.5 -46.5 q-66 -1 -112 41 q-46 42 -47 109 Z" /><glyph glyph-name="slash" unicode="/" d="M777 1456 l-698 -1581 l-210 0 l699 1581 l209 0 Z" /><glyph glyph-name="zero" unicode="0" d="M955 856 l-39 -253 q-21 -139 -73 -285.5 q-52 -146.5 -154 -244.5 q-102 -98 -273 -93 q-163 4 -236.5 106.5 q-73.5 102.5 -87 245.5 q-13.5 143 2.5 270 l39 254 q20 140 72.5 285.5 q52.5 145.5 155 242.5 q102.5 97 273.5 92 q163 -4 236 -106 q73 -102 86.5 -244.5 q13.5 -142.5 -2.5 -269.5 ZM636 563 l48 335 q4 38 12.5 119 q8.5 81 -7 151.5 q-15.5 70.5 -81.5 74.5 q-77 6 -116.5 -59.5 q-39.5 -65.5 -55 -150 q-15.5 -84.5 -22.5 -135.5 l-48 -335 q-4 -37 -12.5 -119.5 q-8.5 -82.5 6.5 -154 q15 -71.5 81 -76.5 q78 -5 117.5 61.5 q39.5 66.5 55 152 q15.5 85.5 22.5 136.5 Z" /><glyph glyph-name="one" unicode="1" d="M839 1458 l-246 -1458 l-276 0 l192 1106 l-287 -105 l43 247 l540 210 l34 0 Z" /><glyph glyph-name="two" unicode="2" d="M870 235 l-38 -235 l-834 0 l33 211 l451 491 q61 70 122.5 157.5 q61.5 87.5 73.5 184.5 q6 53 -5 126 q-11 73 -86 75 q-63 2 -99.5 -39.5 q-36.5 -41.5 -53.5 -100 q-17 -58.5 -22 -106.5 l-274 -2 q14 193 142.5 338.5 q128.5 145.5 332.5 142.5 q182 -3 274.5 -117.5 q92.5 -114.5 76.5 -291.5 q-15 -175 -124.5 -309.5 q-109.5 -134.5 -220.5 -257.5 l-223 -267 l474 0 Z" /><glyph glyph-name="three" unicode="3" d="M487 628 l-147 1 l36 229 l122 -1 q89 2 132.5 64.5 q43.5 62.5 52.5 143.5 q6 56 -12 117.5 q-18 61.5 -90 62.5 q-68 1 -103 -53 q-35 -54 -45 -111 l-275 -1 q12 174 135 287.5 q123 113.5 300 110.5 q180 -3 282 -116 q102 -113 89 -293 q-8 -111 -72.5 -192.5 q-64.5 -81.5 -159.5 -133.5 q88 -51 120 -140.5 q32 -89.5 26 -185.5 q-13 -196 -150 -319 q-137 -123 -333 -118 q-182 4 -276 126 q-94 122 -88 295 l275 -1 q-2 -59 20.5 -120.5 q22.5 -61.5 95.5 -64.5 q85 -2 131 65 q46 67 54 141 q8 73 -12.5 137.5 q-20.5 64.5 -107.5 69.5 Z" /><glyph glyph-name="four" unicode="4" d="M45 512 l637 944 l284 0 l-157 -906 l120 0 l-41 -235 l-119 0 l-55 -315 l-277 0 l56 315 l-468 0 l20 197 ZM327 550 l206 0 l93 493 l-11 -17 l-288 -476 Z" /><glyph glyph-name="five" unicode="5" d="M359 661 l-222 59 l186 736 l686 0 l-38 -242 l-456 0 l-85 -312 q77 53 163 54 q132 1 201.5 -74.5 q69.5 -75.5 92 -187.5 q22.5 -112 13.5 -219 q-11 -130 -70 -244.5 q-59 -114.5 -161 -185 q-102 -70.5 -242 -66.5 q-179 4 -275.5 132 q-96.5 128 -93.5 296 l273 0 q2 -58 22 -123.5 q20 -65.5 94 -67.5 q68 -3 105 45.5 q37 48.5 53 114 q16 65.5 20 116.5 q4 46 0 104 q-4 58 -31 100.5 q-27 42.5 -90 42.5 q-47 0 -81.5 -21.5 q-34.5 -21.5 -63.5 -56.5 Z" /><glyph glyph-name="six" unicode="6" d="M917 486 q-12 -127 -71 -244.5 q-59 -117.5 -161 -191.5 q-102 -74 -242 -71 q-152 4 -232.5 97 q-80.5 93 -106 226.5 q-25.5 133.5 -12.5 257.5 l15 113 q27 200 113.5 383 q86.5 183 238 299.5 q151.5 116.5 376.5 117.5 l42 0 l-24 -241 l-10 1 q-175 3 -275.5 -104 q-100.5 -107 -156.5 -257 q47 46 103 74.5 q56 28.5 124 28.5 q125 -2 188 -83 q63 -81 81.5 -194.5 q18.5 -113.5 9.5 -211.5 ZM364 520 q-4 -38 -6 -110 q-2 -72 18 -132 q20 -60 84 -63 q63 -2 101.5 45.5 q38.5 47.5 57 112 q18.5 64.5 22.5 112.5 q3 39 0 99.5 q-3 60.5 -26.5 108.5 q-23.5 48 -79.5 50 q-57 1 -95 -36.5 q-38 -37.5 -63 -81.5 l-13 -105 Z" /><glyph glyph-name="seven" unicode="7" d="M1055 1456 l-27 -175 l-641 -1281 l-301 0 l638 1221 l-562 0 l37 235 l856 0 Z" /><glyph glyph-name="eight" unicode="8" d="M873 408 q-15 -189 -138.5 -311 q-123.5 -122 -317.5 -117 q-179 4 -274 120.5 q-95 116.5 -82 291.5 q10 125 76 216 q66 91 174 148 q-63 59 -89 139 q-26 80 -20 165 q13 180 129 301 q116 121 302 117 q173 -4 260 -119.5 q87 -115.5 73 -281.5 q-8 -112 -66.5 -194.5 q-58.5 -82.5 -153.5 -137.5 q75 -63 104.5 -152 q29.5 -89 22.5 -185 ZM688 1062 q4 46 -5.5 113 q-9.5 67 -74.5 69 q-73 1 -100.5 -69.5 q-27.5 -70.5 -32.5 -126.5 q-4 -46 5 -115.5 q9 -69.5 75 -70.5 q74 -1 101 71.5 q27 72.5 32 128.5 ZM601 429 q5 55 -10 127.5 q-15 72.5 -89 74.5 q-84 1 -119.5 -75 q-35.5 -76 -41.5 -143 q-5 -56 10.5 -127 q15.5 -71 90.5 -73 q83 -1 118 74 q35 75 41 142 Z" /><glyph glyph-name="nine" unicode="9" d="M933 781 q-28 -205 -113 -387 q-85 -182 -237.5 -295.5 q-152.5 -113.5 -381.5 -114.5 l-23 0 l25 245 l10 -1 q171 -3 267.5 91 q96.5 94 148.5 245 q-41 -39 -89.5 -66 q-48.5 -27 -106.5 -27 q-127 0 -192.5 79 q-65.5 79 -86 191.5 q-20.5 112.5 -11.5 212.5 q11 125 69 247 q58 122 159.5 201 q101.5 79 242.5 76 q151 -4 227 -103 q76 -99 97 -236.5 q21 -137.5 8 -256.5 l-13 -101 ZM419 957 q-3 -38 -2 -101 q1 -63 23 -113.5 q22 -50.5 80 -50.5 q51 0 85 38 q34 38 57 77 l15 130 q4 34 6.5 106.5 q2.5 72.5 -16.5 134.5 q-19 62 -78 64 q-62 2 -97.5 -51 q-35.5 -53 -52 -121.5 q-16.5 -68.5 -20.5 -112.5 Z" /><glyph glyph-name="colon" unicode=":" d="M45 138 q-1 70 45.5 116 q46.5 46 116.5 47 q66 1 111.5 -41.5 q45.5 -42.5 46.5 -109.5 q1 -70 -45.5 -115.5 q-46.5 -45.5 -115.5 -46.5 q-66 -1 -112 41 q-46 42 -47 109 ZM185 956 q-1 70 45.5 116 q46.5 46 116.5 47 q66 1 111.5 -41.5 q45.5 -42.5 46.5 -109.5 q1 -70 -45.5 -115.5 q-46.5 -45.5 -115.5 -46.5 q-66 -1 -112 41 q-46 42 -47 109 Z" /><glyph glyph-name="semicolon" unicode=";" d="M170 956 q-1 70 45.5 116 q46.5 46 116.5 47 q66 1 111.5 -41.5 q45.5 -42.5 46.5 -109.5 q1 -70 -45.5 -115.5 q-46.5 -45.5 -115.5 -46.5 q-66 -1 -112 41 q-46 42 -47 109 ZM337 247 l-32 -197 q-20 -124 -87 -232 q-67 -108 -166 -186 l-146 80 q48 79 93 154 q45 75 62 168 l37 213 l239 0 Z" /><glyph glyph-name="less" unicode="&lt;" d="M687 142 l-645 366 l42 238 l771 364 l-51 -294 l-476 -204 l406 -200 l-47 -270 Z" /><glyph glyph-name="equal" unicode="=" d="M936 982 l-42 -237 l-741 0 l42 237 l741 0 ZM861 549 l-42 -238 l-741 0 l42 238 l741 0 Z" /><glyph glyph-name="greater" unicode="&gt;" d="M204 1097 l654 -366 l-41 -238 l-781 -364 l51 293 l485 206 l-415 201 l47 268 Z" /><glyph glyph-name="question" unicode="?" d="M517 449 l-238 -1 q9 116 46.5 208 q37.5 92 121.5 174 q54 53 104 113 q50 60 61 139 q6 44 -2 101.5 q-8 57.5 -69 58.5 q-65 2 -93 -60 q-28 -62 -37 -112 l-275 -1 q17 180 128 296 q111 116 300 112 q171 -4 259.5 -110.5 q88.5 -106.5 75.5 -274.5 q-12 -134 -93 -226 q-81 -92 -172 -180 q-52 -50 -78.5 -108 q-26.5 -58 -38.5 -129 ZM190 136 q0 66 42 113.5 q42 47.5 109 48.5 q66 1 107.5 -43 q41.5 -44 42.5 -108 q0 -65 -41.5 -112 q-41.5 -47 -108.5 -49 q-65 -1 -107.5 42.5 q-42.5 43.5 -43.5 107.5 Z" /><glyph glyph-name="at" unicode="@" d="M889 -367 q-66 -48 -148.5 -67.5 q-82.5 -19.5 -163.5 -18.5 q-190 2 -306.5 85 q-116.5 83 -171.5 217.5 q-55 134.5 -63 294 q-8 159.5 18 314.5 q28 163 96 332.5 q68 169.5 177 312.5 q109 143 258 229.5 q149 86.5 339 83.5 q179 -3 290 -84 q111 -81 166.5 -210 q55.5 -129 65.5 -281 q10 -152 -13 -298 q-19 -117 -68 -250 q-49 -133 -140.5 -225.5 q-91.5 -92.5 -236.5 -89.5 q-143 4 -182 135 q-41 -52 -93 -92.5 q-52 -40.5 -123 -39.5 q-107 1 -150 81 q-43 80 -46 184 q-3 104 10 178 q19 112 74.5 245.5 q55.5 133.5 151 229 q95.5 95.5 234.5 92.5 q78 -2 137 -31.5 q59 -29.5 117 -76.5 l-127 -582 q-6 -36 -10 -97.5 q-4 -61.5 54 -64.5 q80 -4 127.5 73 q47.5 77 71 173.5 q23.5 96.5 31.5 150.5 q18 109 20 232 q2 123 -28.5 232 q-30.5 109 -110.5 179 q-80 70 -226 73 q-153 4 -270 -70.5 q-117 -74.5 -200 -196 q-83 -121.5 -134.5 -261.5 q-51.5 -140 -73.5 -267 q-20 -109 -24 -235 q-4 -126 25.5 -239 q29.5 -113 109.5 -185.5 q80 -72.5 228 -74.5 q74 -1 146 17.5 q72 18.5 139 50.5 l23 -158 ZM619 423 q-4 -26 -12 -89.5 q-8 -63.5 2.5 -118.5 q10.5 -55 60.5 -57 q49 -1 84 59.5 q35 60.5 46 97.5 l121 494 q-24 7 -42 7 q-94 4 -146.5 -66 q-52.5 -70 -77.5 -164 q-25 -94 -36 -163 Z" /><glyph glyph-name="A" unicode="a" d="M-88 0 l694 1456 l263 0 l191 -1456 l-296 0 l-25 298 l-387 0 l-127 -298 l-313 0 ZM457 543 l262 0 l-41 517 l-221 -517 Z" /><glyph glyph-name="B" unicode="b" d="M991 436 q-16 -214 -152.5 -326.5 q-136.5 -112.5 -346.5 -109.5 l-483 0 l252 1456 l422 -1 q183 -4 298 -99 q115 -95 100 -291 q-9 -114 -69.5 -193.5 q-60.5 -79.5 -161.5 -127.5 q91 -38 119.5 -128 q28.5 -90 21.5 -180 ZM507 1211 l-64 -364 l137 -2 q183 3 209 189 q10 75 -13.5 124 q-23.5 49 -104.5 52 l-164 1 ZM707 439 q9 63 -4 126 q-13 63 -91 67 l-205 2 l-68 -390 l167 -2 q89 2 139 57.5 q50 55.5 62 139.5 Z" /><glyph glyph-name="C" unicode="c" d="M761 485 l278 3 q-24 -228 -166 -371 q-142 -143 -379 -137 q-176 4 -270.5 96.5 q-94.5 92.5 -123.5 234.5 q-29 142 -9 293 l38 247 q24 161 93.5 306 q69.5 145 191.5 234.5 q122 89.5 305 85.5 q234 -5 327.5 -154 q93.5 -149 93.5 -362 l-288 1 q6 102 -13.5 185 q-19.5 83 -142.5 87 q-106 4 -162.5 -56.5 q-56.5 -60.5 -82 -150.5 q-25.5 -90 -36.5 -174 l-35 -250 q-9 -68 -15 -156 q-6 -88 23.5 -154 q29.5 -66 127.5 -71 q129 -5 178 72.5 q49 77.5 67 190.5 Z" /><glyph glyph-name="D" unicode="d" d="M9 0 l252 1456 l359 -1 q175 -5 281.5 -91.5 q106.5 -86.5 148 -225 q41.5 -138.5 21.5 -298.5 l-34 -225 q-39 -261 -201 -438.5 q-162 -177.5 -441 -176.5 l-386 0 ZM608 1210 l-101 1 l-168 -967 l70 -2 q177 -1 248.5 106.5 q71.5 107.5 93.5 266.5 l33 228 q11 84 10.5 167 q-0.5 83 -40.5 140 q-40 57 -146 60 Z" /><glyph glyph-name="E" unicode="e" d="M9 0 l252 1456 l811 0 l-43 -245 l-522 0 l-60 -344 l444 0 l-42 -237 l-443 0 l-67 -386 l525 0 l-43 -244 l-812 0 Z" /><glyph glyph-name="F" unicode="f" d="M9 0 l252 1456 l784 0 l-43 -245 l-495 0 l-65 -373 l443 0 l-43 -244 l-442 0 l-103 -594 l-288 0 Z" /><glyph glyph-name="G" unicode="g" d="M1103 766 l-92 -601 q-90 -100 -225 -143.5 q-135 -43.5 -265 -41.5 q-179 3 -278.5 93 q-99.5 90 -133.5 232 q-34 142 -14 299 l38 247 q24 165 93 309.5 q69 144.5 191.5 232.5 q122.5 88 308.5 84 q229 -5 323.5 -138.5 q94.5 -133.5 97.5 -346.5 l-279 0 q0 92 -24.5 165 q-24.5 73 -132.5 77 q-105 5 -164.5 -55.5 q-59.5 -60.5 -87.5 -150.5 q-28 -90 -39 -175 l-36 -250 q-10 -74 -9.5 -162 q0.5 -88 38 -151 q37.5 -63 139.5 -65 q50 0 91 14.5 q41 14.5 84 37.5 l52 267 l-202 0 l39 222 l487 0 Z" /><glyph glyph-name="H" unicode="h" d="M715 0 l108 623 l-418 0 l-108 -623 l-288 0 l252 1456 l288 0 l-102 -589 l418 0 l103 589 l286 0 l-253 -1456 l-286 0 Z" /><glyph glyph-name="I" unicode="i" d="M561 1456 l-253 -1456 l-287 0 l253 1456 l287 0 Z" /><glyph glyph-name="J" unicode="j" d="M555 448 l171 1008 l287 0 l-171 -1007 q-26 -188 -147 -331 q-121 -143 -327 -139 q-200 5 -283 137 q-83 132 -73 316 l290 -1 q-4 -56 5 -130.5 q9 -74.5 88 -77.5 q85 -2 118 79 q33 81 42 146 Z" /><glyph glyph-name="K" unicode="k" d="M672 0 l-158 559 l-147 -152 l-70 -407 l-288 0 l252 1456 l288 0 l-107 -617 l115 152 l336 465 l366 0 l-527 -653 l266 -803 l-326 0 Z" /><glyph glyph-name="L" unicode="l" d="M839 244 l-43 -244 l-787 0 l252 1456 l288 0 l-210 -1212 l500 0 Z" /><glyph glyph-name="M" unicode="m" d="M715 409 l448 1047 l378 0 l-253 -1456 l-288 0 l71 408 l124 566 l-444 -974 l-197 0 l-109 1010 l-82 -630 l-66 -380 l-288 0 l252 1456 l370 0 l84 -1047 Z" /><glyph glyph-name="N" unicode="n" d="M1252 1456 l-253 -1456 l-281 0 l-253 965 l-168 -965 l-288 0 l252 1456 l282 0 l254 -966 l168 966 l287 0 Z" /><glyph glyph-name="O" unicode="o" d="M1147 840 l-36 -241 q-25 -164 -96.5 -306.5 q-71.5 -142.5 -195.5 -229.5 q-124 -87 -307 -83 q-174 4 -272.5 94 q-98.5 90 -132.5 230.5 q-34 140.5 -15 293.5 l37 242 q24 164 95.5 311 q71.5 147 197 238.5 q125.5 91.5 310.5 86.5 q177 -4 274 -99 q97 -95 129 -239.5 q32 -144.5 12 -297.5 ZM825 598 l35 246 q9 68 11 157 q2 89 -31 157.5 q-33 68.5 -130 72.5 q-106 5 -166 -58 q-60 -63 -88.5 -155 q-28.5 -92 -40.5 -176 l-35 -245 q-8 -68 -8.5 -154 q-0.5 -86 34 -150.5 q34.5 -64.5 129.5 -68.5 q103 -5 162 54.5 q59 59.5 88 148 q29 88.5 40 171.5 Z" /><glyph glyph-name="P" unicode="p" d="M596 511 l-210 1 l-89 -512 l-288 0 l252 1456 l468 -1 q202 -6 304.5 -142.5 q102.5 -136.5 86.5 -330.5 q-19 -217 -164 -344.5 q-145 -127.5 -360 -126.5 ZM507 1211 l-79 -454 l183 -2 q99 2 153 67 q54 65 66 158 q9 69 -9 146.5 q-18 77.5 -105 82.5 l-209 2 Z" /><glyph glyph-name="Q" unicode="q" d="M992 -102 l-197 -159 l-215 245 q-43 -4 -73 -3 q-176 3 -273 98 q-97 95 -128.5 239.5 q-31.5 144.5 -12.5 296.5 l34 225 q24 164 95.5 311 q71.5 147 197 238.5 q125.5 91.5 310.5 86.5 q177 -3 275 -98 q98 -95 130 -240 q32 -145 12 -298 l-35 -225 q-24 -157 -86.5 -295.5 q-62.5 -138.5 -196.5 -233.5 l163 -188 ZM827 615 l33 229 q8 68 10 157.5 q2 89.5 -31.5 157.5 q-33.5 68 -129.5 72 q-106 5 -166 -58 q-60 -63 -89 -155 q-29 -92 -41 -176 l-32 -228 q-9 -68 -10.5 -158 q-1.5 -90 31.5 -159 q33 -69 130 -73 q106 -5 166 58.5 q60 63.5 88.5 156.5 q28.5 93 40.5 176 Z" /><glyph glyph-name="R" unicode="r" d="M656 0 l-120 532 l-146 0 l-92 -532 l-288 0 l252 1456 l440 -1 q196 -5 299.5 -120 q103.5 -115 87.5 -311 q-12 -141 -77.5 -247.5 q-65.5 -106.5 -194.5 -167.5 l147 -593 l0 -16 l-308 0 ZM508 1211 l-76 -434 l150 -2 q98 1 152 67 q54 66 66 158 q9 70 -8 137.5 q-17 67.5 -102 72.5 l-182 1 Z" /><glyph glyph-name="S" unicode="s" d="M676 391 q13 90 -32.5 137 q-45.5 47 -121.5 83 q-142 68 -243.5 172 q-101.5 104 -89.5 277 q14 197 161.5 309 q147.5 112 336.5 107 q196 -4 297 -133.5 q101 -129.5 94 -316.5 l-287 1 q4 73 -18.5 140 q-22.5 67 -112.5 68 q-77 1 -127.5 -50.5 q-50.5 -51.5 -60.5 -124.5 q-9 -77 46.5 -125 q55.5 -48 116.5 -77 q153 -73 246.5 -177.5 q93.5 -104.5 79.5 -287.5 q-16 -199 -155.5 -308.5 q-139.5 -109.5 -332.5 -105.5 q-211 5 -324.5 141.5 q-113.5 136.5 -104.5 340.5 l288 -1 q-6 -95 23 -167.5 q29 -72.5 141 -72.5 q78 1 124 48.5 q46 47.5 56 122.5 Z" /><glyph glyph-name="T" unicode="t" d="M155 1211 l43 245 l981 0 l-43 -245 l-350 0 l-210 -1211 l-287 0 l210 1211 l-344 0 Z" /><glyph glyph-name="U" unicode="u" d="M895 1456 l288 0 l-170 -998 q-31 -222 -166.5 -352.5 q-135.5 -130.5 -365.5 -126.5 q-217 4 -320.5 135 q-103.5 131 -79.5 343 l170 999 l287 0 l-167 -1000 q-10 -91 9 -159.5 q19 -68.5 125 -72.5 q113 -5 160 63 q47 68 62 169 l168 1000 Z" /><glyph glyph-name="V" unicode="v" d="M1268 1456 l-635 -1456 l-298 0 l-178 1456 l311 0 l71 -1052 l402 1052 l327 0 Z" /><glyph glyph-name="W" unicode="w" d="M1584 1456 l-478 -1456 l-288 0 l-29 854 l-297 -854 l-288 0 l-25 1456 l281 0 l-9 -905 l306 905 l241 0 l23 -909 l275 909 l288 0 Z" /><glyph glyph-name="X" unicode="x" d="M496 1456 l112 -498 l267 498 l339 0 l-452 -735 l220 -721 l-321 0 l-113 507 l-273 -507 l-343 0 l462 746 l-215 710 l317 0 Z" /><glyph glyph-name="Y" unicode="y" d="M471 1456 l99 -651 l325 651 l324 0 l-549 -942 l-89 -514 l-291 0 l95 543 l-216 913 l302 0 Z" /><glyph glyph-name="Z" unicode="z" d="M175 1211 l43 245 l913 0 l-32 -185 l-743 -1027 l575 0 l-43 -244 l-917 0 l33 190 l746 1021 l-575 0 Z" /><glyph glyph-name="bracketleft" unicode="[" d="M656 1696 l-35 -225 l-102 0 l-248 -1587 l102 0 l-35 -224 l-378 0 l318 2036 l378 0 Z" /><glyph glyph-name="backslash" unicode="\" d="M383 -125 l-221 1581 l273 0 l221 -1581 l-273 0 Z" /><glyph glyph-name="bracketright" unicode="]" d="M169 1471 l36 225 l378 0 l-319 -2036 l-378 0 l36 224 l102 0 l248 1587 l-103 0 Z" /><glyph glyph-name="asciicircum" unicode="^" d="M65 729 l370 727 l199 0 l117 -727 l-206 0 l-49 454 l-206 -454 l-225 0 Z" /><glyph glyph-name="underscore" unicode="_" d="M671 0 l-41 -228 l-754 0 l40 228 l755 0 Z" /><glyph glyph-name="grave" unicode="`" d="M499 1536 l144 -309 l-217 0 l-221 309 l294 0 Z" /><glyph glyph-name="a" unicode="a" d="M507 0 q-8 37 -8 84 q-42 -47 -93 -76 q-51 -29 -117 -29 q-131 1 -203 96.5 q-72 95.5 -66 219.5 q10 194 147.5 280.5 q137.5 86.5 315.5 86.5 l87 0 l13 88 q5 43 -2.5 87 q-7.5 44 -64.5 45 q-57 1 -83 -37 q-26 -38 -35 -87 l-275 -2 q10 165 135 257.5 q125 92.5 283 89.5 q161 -4 247 -101 q86 -97 70 -258 l-77 -480 q-9 -59 -15.5 -123.5 q-6.5 -64.5 14.5 -121.5 l-1 -19 l-272 0 ZM366 201 q41 -1 74.5 17.5 q33.5 18.5 60.5 46.5 l49 229 l-60 0 q-78 -3 -128 -53 q-50 -50 -60 -127 q-5 -38 6 -74.5 q11 -36.5 58 -38.5 Z" /><glyph glyph-name="b" unicode="b" d="M905 506 q-14 -120 -54.5 -243.5 q-40.5 -123.5 -124.5 -205.5 q-84 -82 -231 -77 q-138 5 -208 129 l-34 -109 l-257 0 l267 1536 l275 0 l-105 -543 q42 49 94 79.5 q52 30.5 119 29.5 q142 -1 201.5 -88 q59.5 -87 68.5 -208.5 q9 -121.5 -3 -228.5 l-8 -71 ZM549 867 q-47 1 -80.5 -22 q-33.5 -23 -60.5 -59 l-86 -496 q30 -72 113 -75 q81 -4 120.5 43 q39.5 47 53.5 116.5 q14 69.5 21 131.5 l8 72 q4 44 10.5 112 q6.5 68 -12 122 q-18.5 54 -87.5 55 Z" /><glyph glyph-name="c" unicode="c" d="M416 213 q72 -2 101 49 q29 51 39 112 l258 1 q-14 -169 -126.5 -284.5 q-112.5 -115.5 -288.5 -111.5 q-151 3 -231 79.5 q-80 76.5 -105 195 q-25 118.5 -10 248.5 l9 78 q18 138 73.5 259 q55.5 121 157 194 q101.5 73 257.5 69 q185 -5 259.5 -131.5 q74.5 -126.5 66.5 -293.5 l-260 1 q3 58 -8.5 122.5 q-11.5 64.5 -87.5 68.5 q-77 3 -114 -45.5 q-37 -48.5 -50 -117.5 q-13 -69 -19 -126 l-7 -79 q-4 -44 -11.5 -111.5 q-7.5 -67.5 10 -121 q17.5 -53.5 87.5 -55.5 Z" /><glyph glyph-name="d" unicode="d" d="M532 -2 l16 113 q-44 -57 -99.5 -95 q-55.5 -38 -131.5 -37 q-137 2 -197.5 90 q-60.5 88 -71 209.5 q-10.5 121.5 0.5 224.5 l8 71 q15 119 56.5 243 q41.5 124 127 207 q85.5 83 230.5 78 q123 -4 195 -110 l103 544 l277 0 l-266 -1536 l-248 -2 ZM326 502 q-4 -42 -9.5 -109.5 q-5.5 -67.5 13 -121.5 q18.5 -54 85.5 -55 q45 -1 77.5 21 q32.5 22 60.5 55 l87 495 q-32 77 -107 81 q-79 4 -119 -45 q-40 -49 -56.5 -119.5 q-16.5 -70.5 -23.5 -129.5 l-8 -72 Z" /><glyph glyph-name="e" unicode="e" d="M804 140 q-62 -84 -164.5 -122.5 q-102.5 -38.5 -203.5 -37.5 q-218 3 -309 151.5 q-91 148.5 -70 347.5 l11 89 q17 138 74 262 q57 124 160 200 q103 76 260 72 q149 -3 224.5 -82 q75.5 -79 96.5 -198.5 q21 -119.5 6 -245.5 l-19 -129 l-538 0 q-9 -85 13 -156.5 q22 -71.5 124 -74.5 q69 -2 129.5 25 q60.5 27 111.5 71 l94 -172 ZM536 869 q-95 4 -131 -72.5 q-36 -76.5 -55 -151.5 l275 -1 l5 28 q9 62 -2 128 q-11 66 -92 69 Z" /><glyph glyph-name="f" unicode="f" d="M650 869 l-164 0 l-151 -869 l-276 0 l151 869 l-127 0 l37 213 l127 1 l12 93 q21 165 118.5 275.5 q97.5 110.5 273.5 108.5 q34 0 66.5 -6 q32.5 -6 65.5 -14 l-23 -227 q-17 4 -33.5 7 q-16.5 3 -33.5 3 q-68 1 -106 -42 q-38 -43 -50 -105 l-14 -94 l164 0 l-37 -213 Z" /><glyph glyph-name="g" unicode="g" d="M801 0 q-28 -205 -158.5 -318.5 q-130.5 -113.5 -338.5 -107.5 q-86 2 -171.5 34 q-85.5 32 -146.5 94 l114 194 q86 -93 208 -97 q99 -3 150 52 q51 55 69 146 l21 90 q-44 -49 -95.5 -78.5 q-51.5 -29.5 -118.5 -29.5 q-138 1 -201 87.5 q-63 86.5 -77 207.5 q-14 121 -3 225 l8 74 q14 122 59 246 q45 124 133.5 206 q88.5 82 235.5 78 q143 -5 210 -117 l33 97 l253 -1 l-184 -1082 ZM329 502 q-5 -45 -8 -111.5 q-3 -66.5 18.5 -119 q21.5 -52.5 90.5 -54.5 q42 -1 75 16 q33 17 62 46 l92 522 q-36 63 -109 67 q-80 4 -123.5 -44 q-43.5 -48 -63 -118 q-19.5 -70 -27.5 -132 l-7 -72 Z" /><glyph glyph-name="h" unicode="h" d="M533 866 q-43 1 -73.5 -20 q-30.5 -21 -56.5 -51 l-138 -795 l-277 0 l267 1536 l276 0 l-106 -550 q45 51 101 84.5 q56 33.5 127 32.5 q114 -2 168.5 -69 q54.5 -67 67 -164 q12.5 -97 3.5 -188 l-114 -682 l-276 0 l114 685 q6 55 -1.5 117.5 q-7.5 62.5 -81.5 63.5 Z" /><glyph glyph-name="i" unicode="i" d="M232 1357 q0 66 42 111 q42 45 109 46 q64 1 106.5 -40.5 q42.5 -41.5 42.5 -106.5 q1 -65 -41 -110 q-42 -45 -109 -46 q-64 -2 -106.5 39.5 q-42.5 41.5 -43.5 106.5 ZM473 1082 l-188 -1082 l-277 0 l188 1082 l277 0 Z" /><glyph glyph-name="j" unicode="j" d="M227 1357 q0 65 41.5 110.5 q41.5 45.5 108.5 46.5 q65 1 107.5 -40.5 q42.5 -41.5 42.5 -106.5 q1 -66 -41.5 -110.5 q-42.5 -44.5 -108.5 -45.5 q-64 -1 -106.5 40.5 q-42.5 41.5 -43.5 105.5 ZM197 1082 l277 0 l-194 -1140 q-20 -157 -107 -270.5 q-87 -113.5 -260 -111.5 q-35 0 -68.5 5.5 q-33.5 5.5 -67.5 13.5 l26 230 q18 -3 37 -7 q19 -4 38 -4 q62 1 88 45.5 q26 44.5 36 97.5 l195 1141 Z" /><glyph glyph-name="k" unicode="k" d="M542 0 l-117 415 l-98 -93 l-56 -322 l-276 0 l267 1537 l276 0 l-153 -834 l44 54 l246 325 l345 0 l-394 -457 l218 -625 l-302 0 Z" /><glyph glyph-name="l" unicode="l" d="M552 1536 l-267 -1536 l-277 0 l266 1536 l278 0 Z" /><glyph glyph-name="m" unicode="m" d="M536 867 q-42 0 -71.5 -23 q-29.5 -23 -53.5 -54 l-138 -790 l-276 0 l188 1082 l256 1 l-18 -101 q51 56 114 88.5 q63 32.5 140 31.5 q157 -3 203 -145 q53 65 119.5 106 q66.5 41 153.5 40 q113 -3 164.5 -69 q51.5 -66 62.5 -161 q11 -95 2 -184 l-114 -689 l-277 0 l115 690 q5 51 0.5 113.5 q-4.5 62.5 -75.5 63.5 q-47 0 -77.5 -31 q-30.5 -31 -52.5 -67 q-3 -28 -6 -47 l-125 -722 l-275 0 l114 688 q6 50 2 114.5 q-4 64.5 -75 64.5 Z" /><glyph glyph-name="n" unicode="n" d="M532 867 q-43 0 -73.5 -24 q-30.5 -24 -55.5 -56 l-137 -787 l-277 0 l188 1082 l257 1 l-20 -108 q50 58 112.5 93.5 q62.5 35.5 141.5 34.5 q112 -2 162.5 -69.5 q50.5 -67.5 61 -162.5 q10.5 -95 1.5 -183 l-115 -688 l-276 0 l115 691 q6 56 -2 116 q-8 60 -83 60 Z" /><glyph glyph-name="o" unicode="o" d="M54 505 l8 70 q16 137 75.5 259 q59.5 122 164.5 197 q105 75 258 71 q147 -3 229 -81 q82 -78 109.5 -197.5 q27.5 -119.5 14.5 -247.5 l-8 -71 q-16 -137 -75.5 -258.5 q-59.5 -121.5 -164 -196 q-104.5 -74.5 -257.5 -70.5 q-148 3 -229.5 81 q-81.5 78 -109.5 197 q-28 119 -15 247 ZM339 576 l-7 -73 q-4 -43 -6 -110.5 q-2 -67.5 19.5 -121.5 q21.5 -54 87.5 -57 q75 -5 115.5 45.5 q40.5 50.5 58.5 121 q18 70.5 24 126.5 l7 71 q3 43 4.5 110.5 q1.5 67.5 -20 122 q-21.5 54.5 -87.5 58.5 q-73 4 -113.5 -47 q-40.5 -51 -58.5 -121.5 q-18 -70.5 -24 -124.5 Z" /><glyph glyph-name="p" unicode="p" d="M495 -20 q-127 4 -200 110 l-96 -506 l-275 0 l260 1498 l251 1 l-15 -101 q44 55 98.5 88 q54.5 33 126.5 33 q141 -2 201 -88.5 q60 -86.5 69.5 -208.5 q9.5 -122 -1.5 -228 l-9 -71 q-14 -117 -55.5 -241 q-41.5 -124 -126.5 -207.5 q-85 -83.5 -228 -78.5 ZM546 867 q-45 1 -77 -20 q-32 -21 -60 -54 l-88 -508 q32 -68 111 -72 q78 -3 117.5 46.5 q39.5 49.5 56 119.5 q16.5 70 23.5 128 l8 72 q4 42 9 110 q5 68 -13.5 122.5 q-18.5 54.5 -86.5 55.5 Z" /><glyph glyph-name="q" unicode="q" d="M967 1082 l-259 -1498 l-278 0 l98 502 q-42 -49 -93 -78.5 q-51 -29.5 -117 -28.5 q-138 1 -198 89 q-60 88 -70 209.5 q-10 121.5 0 224.5 l9 74 q14 120 55 243.5 q41 123.5 126.5 205.5 q85.5 82 231.5 77 q139 -5 208 -129 l42 109 l245 0 ZM326 505 q-4 -42 -9.5 -110.5 q-5.5 -68.5 13 -123.5 q18.5 -55 85.5 -56 q43 -1 75.5 17.5 q32.5 18.5 60.5 49.5 l91 516 q-33 67 -108 70 q-79 4 -119.5 -44.5 q-40.5 -48.5 -57 -118 q-16.5 -69.5 -23.5 -128.5 l-8 -72 Z" /><glyph glyph-name="r" unicode="r" d="M576 820 q-112 1 -180 -104 l-125 -716 l-276 0 l188 1082 l259 1 l-23 -119 q35 55 81 98 q46 43 117 43 q21 0 42 -4 q21 -4 42 -10 l-38 -281 q-22 3 -44 6 q-22 3 -43 4 Z" /><glyph glyph-name="s" unicode="s" d="M515 297 q9 58 -48 91 q-57 33 -98 53 q-106 51 -182.5 123.5 q-76.5 72.5 -69.5 203.5 q8 158 127 247.5 q119 89.5 270 87.5 q155 -3 252 -93 q97 -90 95 -248 l-276 0 q2 49 -12 90.5 q-14 41.5 -74 40.5 q-48 0 -81 -32.5 q-33 -32.5 -41 -78.5 q-10 -56 47 -87 q57 -31 96 -49 q114 -52 191 -125.5 q77 -73.5 69 -210.5 q-9 -166 -136.5 -249.5 q-127.5 -83.5 -281.5 -80.5 q-156 4 -256.5 101.5 q-100.5 97.5 -98.5 254.5 l262 -1 q-2 -62 19.5 -104 q21.5 -42 92.5 -42 q116 1 134 108 Z" /><glyph glyph-name="t" unicode="t" d="M472 6 q-67 -26 -145 -25 q-140 3 -189.5 99 q-49.5 96 -38.5 221 l93 568 l-123 0 l37 213 l122 0 l47 267 l275 0 l-46 -267 l140 0 l-37 -213 l-140 0 l-91 -539 q-5 -39 -0.5 -72 q4.5 -33 52.5 -35 q17 -1 34 1 q17 2 34 5 l-24 -223 Z" /><glyph glyph-name="u" unicode="u" d="M522 0 l19 100 q-47 -56 -105.5 -89 q-58.5 -33 -133.5 -32 q-111 2 -166 65 q-55 63 -70 155 q-15 92 -6 183 l117 700 l276 0 l-117 -703 q-5 -44 0.5 -101.5 q5.5 -57.5 66.5 -60.5 q49 -2 85.5 22 q36.5 24 64.5 61 l136 782 l278 0 l-188 -1082 l-257 0 Z" /><glyph glyph-name="v" unicode="v" d="M944 1082 l-457 -1082 l-264 0 l-120 1082 l283 0 l26 -677 l238 677 l294 0 Z" /><glyph glyph-name="w" unicode="w" d="M1310 1082 l-405 -1082 l-230 0 l-39 621 l-256 -621 l-230 0 l-31 1082 l260 0 l-11 -598 l241 598 l198 0 l33 -604 l199 604 l271 0 Z" /><glyph glyph-name="x" unicode="x" d="M406 1082 l66 -318 l171 318 l303 0 l-329 -542 l159 -540 l-283 0 l-75 337 l-181 -337 l-306 0 l343 566 l-152 516 l284 0 Z" /><glyph glyph-name="y" unicode="y" d="M400 -163 q-45 -109 -122 -193 q-77 -84 -207 -84 q-32 0 -62 6.5 q-30 6.5 -60 14.5 l23 221 q8 -1 16 -2 q8 -1 16 -1 q118 -3 171 116 l41 90 l-112 1077 l288 0 l20 -605 l244 605 l302 0 l-558 -1245 Z" /><glyph glyph-name="z" unicode="z" d="M130 847 l41 235 l727 0 l-32 -184 l-517 -663 l408 0 l-41 -235 l-743 0 l33 190 l513 657 l-389 0 Z" /><glyph glyph-name="braceleft" unicode="{" d="M140 310 q8 68 -3.5 130.5 q-11.5 62.5 -91.5 72.5 l23 208 q87 6 124 68 q37 62 49 140 l28 203 q23 173 109.5 292 q86.5 119 255.5 175 l37 -164 q-83 -44 -113 -130 q-30 -86 -43 -173 l-27 -203 q-28 -213 -207 -315 q69 -56 90.5 -138 q21.5 -82 13.5 -167 l-27 -204 q-10 -72 -12.5 -163.5 q-2.5 -91.5 68.5 -137.5 l-62 -163 q-150 60 -203 186.5 q-53 126.5 -36 278.5 l27 204 Z" /><glyph glyph-name="bar" unicode="|" d="M474 1456 l-270 -1726 l-172 0 l270 1726 l172 0 Z" /><glyph glyph-name="braceright" unicode="}" d="M459 928 q-9 -68 2 -131 q11 -63 92 -72 l-23 -208 q-87 -6 -123.5 -68.5 q-36.5 -62.5 -48.5 -139.5 l-28 -203 q-23 -172 -108.5 -291.5 q-85.5 -119.5 -252.5 -178.5 l-41 167 q84 44 113 130.5 q29 86.5 42 172.5 l27 203 q28 215 211 315 q-70 55 -93.5 137 q-23.5 82 -14.5 168 l27 204 q10 73 12 164 q2 91 -70 139 l66 160 q149 -60 202.5 -186 q53.5 -126 36.5 -278 l-28 -204 Z" /><glyph glyph-name="asciitilde" unicode="~" d="M836 795 l197 0 q-7 -90 -40.5 -188.5 q-33.5 -98.5 -101 -166.5 q-67.5 -68 -177.5 -66 q-70 2 -123 40.5 q-53 38.5 -93 93.5 q-19 26 -43 54.5 q-24 28.5 -62 28.5 q-63 1 -87 -65 q-24 -66 -31 -113 l-201 2 q7 89 40.5 186.5 q33.5 97.5 100.5 164 q67 66.5 177 63.5 q69 -2 124 -40 q55 -38 94 -93 q19 -26 42 -54.5 q23 -28.5 61 -28.5 q64 -1 89.5 66.5 q25.5 67.5 33.5 115.5 Z" /><glyph glyph-name="cent" unicode="¢" d="M841 375 q-13 -148 -102 -249.5 q-89 -101.5 -233 -134.5 l-47 -236 l-187 0 l48 237 q-114 34 -168.5 122 q-54.5 88 -67 198.5 q-12.5 110.5 -1.5 211.5 l4 29 q23 186 118 342.5 q95 156.5 293 196.5 l45 226 l187 0 l-46 -229 q135 -43 180.5 -163 q45.5 -120 39.5 -249 l-259 1 q2 55 -11.5 121.5 q-13.5 66.5 -86.5 69.5 q-76 3 -113.5 -53.5 q-37.5 -56.5 -51.5 -132.5 q-14 -76 -20 -130 l-3 -27 q-3 -41 -10 -115 q-7 -74 10 -135 q17 -61 85 -63 q68 -2 99 51.5 q31 53.5 41 109.5 l257 1 Z" /><glyph glyph-name="sterling" unicode="£" d="M7 0 l28 243 l74 -3 q52 26 67.5 77.5 q15.5 51.5 22.5 103.5 l21 155 l-124 0 l41 237 l119 0 l29 226 q22 179 135 310 q113 131 306 126 q184 -4 264.5 -126 q80.5 -122 73.5 -292 l-275 1 q2 49 -9 111.5 q-11 62.5 -79 63.5 q-69 2 -97 -69.5 q-28 -71.5 -34 -123.5 l-27 -227 l243 0 l-41 -237 l-235 0 l-17 -136 q-16 -116 -94 -199 l523 3 l-43 -244 l-872 0 Z" /><glyph glyph-name="yen" unicode="¥" d="M773 278 l-216 0 l-49 -278 l-287 0 l49 278 l-236 0 l30 174 l235 0 l21 115 l-236 0 l31 175 l196 0 l-134 714 l290 0 l64 -494 l236 494 l307 0 l-378 -714 l158 0 l-30 -175 l-217 0 l-21 -115 l218 0 l-31 -174 Z" /><glyph glyph-name="dieresis" unicode="¨" d="M211 1362 q0 56 40 93.5 q40 37.5 95 38.5 q53 1 94.5 -34 q41.5 -35 41.5 -90 q1 -56 -39.5 -93.5 q-40.5 -37.5 -94.5 -38.5 q-54 -1 -95 34 q-41 35 -42 90 ZM686 1361 q-1 57 39 94.5 q40 37.5 95 38.5 q54 1 95 -34.5 q41 -35.5 41 -90.5 q1 -56 -39.5 -93.5 q-40.5 -37.5 -94.5 -38.5 q-53 -1 -94.5 34 q-41.5 35 -41.5 90 Z" /><glyph glyph-name="copyright" unicode="©" d="M104 722 q22 199 131 372 q109 173 280.5 279.5 q171.5 106.5 379.5 102.5 q199 -3 337 -110.5 q138 -107.5 203.5 -276 q65.5 -168.5 45.5 -354.5 q-21 -197 -130 -371 q-109 -174 -280.5 -281 q-171.5 -107 -378.5 -103 q-199 3 -338 111 q-139 108 -204.5 276.5 q-65.5 168.5 -45.5 354.5 ZM224 722 q-20 -152 28 -292 q48 -140 158 -231 q110 -91 275 -94 q175 -4 320 85.5 q145 89.5 239.5 235 q94.5 145.5 116.5 310.5 q21 152 -27 291.5 q-48 139.5 -158 230 q-110 90.5 -275 93.5 q-174 4 -319.5 -85 q-145.5 -89 -240 -234 q-94.5 -145 -117.5 -310 ZM929 595 l150 1 q-11 -150 -103.5 -234 q-92.5 -84 -244.5 -80 q-162 4 -235.5 121.5 q-73.5 117.5 -61.5 265.5 l12 119 q17 157 114.5 274 q97.5 117 267.5 114 q146 -3 225 -87.5 q79 -84.5 75 -228.5 l-152 1 q5 81 -27.5 130 q-32.5 49 -120.5 51 q-107 2 -162 -78 q-55 -80 -67 -175 l-14 -121 q-8 -82 18 -164.5 q26 -82.5 127 -86.5 q91 -4 138 45 q47 49 61 133 Z" /><glyph glyph-name="guillemotleft" unicode="«" d="M225 124 l-170 387 l2 21 l287 392 l186 0 l-266 -413 l114 -386 l-153 -1 ZM557 124 l-170 387 l2 21 l287 392 l186 0 l-266 -413 l114 -386 l-153 -1 Z" /><glyph glyph-name="registered" unicode="®" d="M104 722 q22 199 131 372 q109 173 280.5 279 q171.5 106 379.5 103 q199 -3 337.5 -110.5 q138.5 -107.5 204 -276 q65.5 -168.5 44.5 -354.5 q-21 -197 -130 -371 q-109 -174 -280.5 -281 q-171.5 -107 -378.5 -103 q-199 3 -338 111 q-139 108 -204.5 276.5 q-65.5 168.5 -45.5 354.5 ZM224 722 q-20 -152 28 -292 q48 -140 158 -231 q110 -91 275 -94 q175 -4 320 85.5 q145 89.5 239.5 235 q94.5 145.5 116.5 310.5 q21 152 -27 291.5 q-48 139.5 -158 230 q-110 90.5 -275 93.5 q-174 4 -319.5 -85 q-145.5 -89 -240 -234 q-94.5 -145 -117.5 -310 ZM808 651 l-165 2 l-53 -337 l-148 0 l133 850 l259 -1 q117 -3 205 -63 q88 -60 81 -191 q-3 -67 -41 -110 q-38 -43 -93 -76 q50 -37 62.5 -94 q12.5 -57 7.5 -116 l-6 -56 q-4 -33 -3 -63.5 q1 -30.5 4 -62.5 l-1 -18 l-148 0 q-6 37 -4 73 q2 36 6 73 l7 55 q6 63 -15.5 97.5 q-21.5 34.5 -87.5 37.5 ZM702 1033 l-39 -246 l119 -1 q60 2 121.5 29 q61.5 27 73.5 94 q14 75 -29 98.5 q-43 23.5 -107 24.5 l-139 1 Z" /><glyph glyph-name="acute" unicode="´" d="M188 1227 l240 309 l325 0 l-318 -309 l-247 0 Z" /><glyph glyph-name="cedilla" unicode="¸" d="M10 7 l205 1 l-18 -62 q55 -17 75 -63.5 q20 -46.5 19 -99.5 q-4 -139 -108.5 -191.5 q-104.5 -52.5 -223.5 -56.5 l12 169 q79 12 90 89 q7 47 -24.5 56.5 q-31.5 9.5 -67.5 14.5 l41 143 Z" /><glyph glyph-name="guillemotright" unicode="»" d="M298 924 l170 -388 l-1 -20 l-287 -392 l-187 0 l265 413 l-113 386 l153 1 ZM636 924 l170 -388 l-1 -20 l-287 -392 l-187 0 l265 413 l-113 386 l153 1 Z" /><glyph glyph-name="circumflex" unicode="&#x2c6;" d="M674 1538 l224 -278 l0 -18 l-210 3 l-95 141 l-146 -140 l-218 -3 l0 19 l291 275 l154 1 Z" /><glyph glyph-name="ring" unicode="&#x2da;" d="M242 1316 q0 92 68.5 152.5 q68.5 60.5 157.5 60.5 q83 0 145 -56.5 q62 -56.5 62 -142.5 q0 -92 -69 -150.5 q-69 -58.5 -157 -58.5 q-83 0 -145 54.5 q-62 54.5 -62 140.5 ZM354 1317 q-5 -41 17.5 -70.5 q22.5 -29.5 65.5 -29.5 q47 0 83 33 q36 33 42 79 q6 41 -16.5 72 q-22.5 31 -65.5 31 q-48 0 -84 -34.5 q-36 -34.5 -42 -80.5 Z" /><glyph glyph-name="tilde" unicode="&#x2dc;" d="M734 1536 l158 -11 q-7 -88 -56 -179.5 q-49 -91.5 -156 -90.5 q-64 1 -110.5 47 q-46.5 46 -107.5 43 q-38 -2 -54.5 -33 q-16.5 -31 -25.5 -63 l-157 10 q7 87 57 180 q50 93 155 91 q62 -2 109.5 -47.5 q47.5 -45.5 108.5 -42.5 q39 2 55 33.5 q16 31.5 24 62.5 Z" /><glyph glyph-name="endash" unicode="&#x2013;" d="M1047 833 l-50 -238 l-853 0 l50 238 l853 0 Z" /><glyph glyph-name="emdash" unicode="&#x2014;" d="M1319 833 l-67 -238 l-1138 0 l68 238 l1137 0 Z" /><glyph glyph-name="quoteleft" unicode="&#x2018;" d="M182 1048 l24 151 q17 108 75 204 q58 96 139 168 l125 -81 q-41 -69 -73.5 -139.5 q-32.5 -70.5 -46.5 -150.5 l-26 -152 l-217 0 Z" /><glyph glyph-name="quoteright" unicode="&#x2019;" d="M515 1536 l-24 -154 q-16 -108 -72 -204.5 q-56 -96.5 -134 -170.5 l-133 83 q40 70 72.5 140.5 q32.5 70.5 47.5 150.5 l27 155 l216 0 Z" /><glyph glyph-name="quotesinglbase" unicode="&#x201a;" d="M303 231 l-27 -163 q-17 -109 -75 -205.5 q-58 -96.5 -140 -168.5 l-124 81 q40 69 69 140.5 q29 71.5 43 150.5 l28 165 l226 0 Z" /><glyph glyph-name="quotedblleft" unicode="&#x201c;" d="M191 1048 l24 151 q17 108 75 204 q58 96 139 168 l125 -81 q-41 -69 -73.5 -139.5 q-32.5 -70.5 -46.5 -150.5 l-26 -152 l-217 0 ZM495 1048 l24 151 q17 108 75 204 q58 96 139 168 l125 -81 q-41 -69 -73.5 -139.5 q-32.5 -70.5 -46.5 -150.5 l-26 -152 l-217 0 Z" /><glyph glyph-name="quotedblright" unicode="&#x201d;" d="M529 1536 l-24 -154 q-16 -108 -72 -204.5 q-56 -96.5 -134 -170.5 l-133 83 q40 70 72.5 140.5 q32.5 70.5 47.5 150.5 l27 155 l216 0 ZM838 1536 l-24 -154 q-16 -108 -72 -204.5 q-56 -96.5 -134 -170.5 l-133 83 q40 70 72.5 140.5 q32.5 70.5 47.5 150.5 l27 155 l216 0 Z" /><glyph glyph-name="quotedblbase" unicode="&#x201e;" d="M308 264 l-32 -197 q-37 -232 -210 -393 l-133 81 q42 74 71.5 150.5 q29.5 76.5 44.5 160.5 l34 198 l225 0 ZM616 264 l-32 -196 q-18 -113 -76.5 -215 q-58.5 -102 -142.5 -179 l-132 81 q42 75 75 150.5 q33 75.5 48 160.5 l35 198 l225 0 Z" /><glyph glyph-name="ellipsis" unicode="&#x2026;" d="M44 138 q-1 70 45.5 116 q46.5 46 116.5 47 q66 1 111.5 -41.5 q45.5 -42.5 46.5 -109.5 q1 -70 -45.5 -115.5 q-46.5 -45.5 -115.5 -46.5 q-66 -1 -112 41 q-46 42 -47 109 ZM445 138 q-1 70 45.5 116 q46.5 46 116.5 47 q66 1 111.5 -41.5 q45.5 -42.5 46.5 -109.5 q1 -70 -45.5 -115.5 q-46.5 -45.5 -115.5 -46.5 q-66 -1 -112 41 q-46 42 -47 109 ZM838 138 q-1 70 45.5 116 q46.5 46 116.5 47 q66 1 111.5 -41.5 q45.5 -42.5 46.5 -109.5 q1 -70 -45.5 -115.5 q-46.5 -45.5 -115.5 -46.5 q-66 -1 -112 41 q-46 42 -47 109 Z" /><glyph glyph-name="guilsinglleft" unicode="&#x2039;" d="M263 124 l-170 387 l2 21 l287 392 l186 0 l-266 -413 l114 -386 l-153 -1 Z" /><glyph glyph-name="guilsinglright" unicode="&#x203a;" d="M297 924 l170 -388 l-1 -20 l-287 -392 l-187 0 l265 413 l-113 386 l153 1 Z" /><glyph glyph-name="Euro" unicode="&#x20ac;" d="M826 9 q-108 -28 -211 -26 q-150 2 -244 78 q-94 76 -131.5 197 q-37.5 121 -18.5 259 l-142 -1 l27 152 l132 0 l22 125 l-132 0 l27 152 l124 0 q56 221 195 378 q139 157 386 153 q52 0 102 -9.5 q50 -9.5 100 -23.5 l-63 -244 q-70 34 -140 36 q-133 3 -197 -87.5 q-64 -90.5 -96 -202.5 l261 0 l-27 -152 l-252 0 l-22 -125 l253 0 l-27 -152 l-245 0 q-12 -98 10 -192.5 q22 -94.5 145 -97.5 q40 -1 78.5 7.5 q38.5 8.5 75.5 22.5 l10 -247 Z" /><glyph glyph-name="trademark" unicode="&#x2122;" d="M900 915 l58 328 l-131 -328 l-63 -1 l-23 361 l-64 -360 l-119 0 l94 541 l142 0 l22 -363 l157 363 l140 0 l-95 -541 l-118 0 ZM600 1456 l-19 -108 l-99 0 l-75 -430 l-132 0 l75 430 l-106 0 l19 108 l337 0 Z" /><glyph glyph-name="Agrave" unicode="à" d="M-88 0 l694 1456 l263 0 l191 -1456 l-296 0 l-25 298 l-387 0 l-127 -298 l-313 0 ZM457 543 l262 0 l-41 517 l-221 -517 ZM751 1846 l144 -309 l-217 0 l-221 309 l294 0 Z" /><glyph glyph-name="Egrave" unicode="è" d="M9 0 l252 1456 l811 0 l-43 -245 l-522 0 l-60 -344 l444 0 l-42 -237 l-443 0 l-67 -386 l525 0 l-43 -244 l-812 0 ZM694 1849 l144 -309 l-217 0 l-221 309 l294 0 Z" /><glyph glyph-name="Eacute" unicode="é" d="M9 0 l252 1456 l811 0 l-43 -245 l-522 0 l-60 -344 l444 0 l-42 -237 l-443 0 l-67 -386 l525 0 l-43 -244 l-812 0 ZM560 1540 l240 309 l325 0 l-318 -309 l-247 0 Z" /><glyph glyph-name="Igrave" unicode="ì" d="M561 1456 l-253 -1456 l-287 0 l253 1456 l287 0 ZM422 1849 l144 -309 l-217 0 l-221 309 l294 0 Z" /><glyph glyph-name="Ograve" unicode="ò" d="M1147 840 l-36 -241 q-25 -164 -96.5 -306.5 q-71.5 -142.5 -195.5 -229.5 q-124 -87 -307 -83 q-174 4 -272.5 94 q-98.5 90 -132.5 230.5 q-34 140.5 -15 293.5 l37 242 q24 164 95.5 311 q71.5 147 197 238.5 q125.5 91.5 310.5 86.5 q177 -4 274 -99 q97 -95 129 -239.5 q32 -144.5 12 -297.5 ZM825 598 l35 246 q9 68 11 157 q2 89 -31 157.5 q-33 68.5 -130 72.5 q-106 5 -166 -58 q-60 -63 -88.5 -155 q-28.5 -92 -40.5 -176 l-35 -245 q-8 -68 -8.5 -154 q-0.5 -86 34 -150.5 q34.5 -64.5 129.5 -68.5 q103 -5 162 54.5 q59 59.5 88 148 q29 88.5 40 171.5 ZM753 1846 l144 -309 l-217 0 l-221 309 l294 0 Z" /><glyph glyph-name="Oacute" unicode="ó" d="M1147 840 l-36 -241 q-25 -164 -96.5 -306.5 q-71.5 -142.5 -195.5 -229.5 q-124 -87 -307 -83 q-174 4 -272.5 94 q-98.5 90 -132.5 230.5 q-34 140.5 -15 293.5 l37 242 q24 164 95.5 311 q71.5 147 197 238.5 q125.5 91.5 310.5 86.5 q177 -4 274 -99 q97 -95 129 -239.5 q32 -144.5 12 -297.5 ZM825 598 l35 246 q9 68 11 157 q2 89 -31 157.5 q-33 68.5 -130 72.5 q-106 5 -166 -58 q-60 -63 -88.5 -155 q-28.5 -92 -40.5 -176 l-35 -245 q-8 -68 -8.5 -154 q-0.5 -86 34 -150.5 q34.5 -64.5 129.5 -68.5 q103 -5 162 54.5 q59 59.5 88 148 q29 88.5 40 171.5 ZM620 1537 l240 309 l325 0 l-318 -309 l-247 0 Z" /><glyph glyph-name="Ugrave" unicode="ù" d="M895 1456 l288 0 l-170 -998 q-31 -222 -166.5 -352.5 q-135.5 -130.5 -365.5 -126.5 q-217 4 -320.5 135 q-103.5 131 -79.5 343 l170 999 l287 0 l-167 -1000 q-10 -91 9 -159.5 q19 -68.5 125 -72.5 q113 -5 160 63 q47 68 62 169 l168 1000 ZM716 1846 l144 -309 l-217 0 l-221 309 l294 0 Z" /><glyph glyph-name="agrave" unicode="à" d="M507 0 q-8 37 -8 84 q-42 -47 -93 -76 q-51 -29 -117 -29 q-131 1 -203 96.5 q-72 95.5 -66 219.5 q10 194 147.5 280.5 q137.5 86.5 315.5 86.5 l87 0 l13 88 q5 43 -2.5 87 q-7.5 44 -64.5 45 q-57 1 -83 -37 q-26 -38 -35 -87 l-275 -2 q10 165 135 257.5 q125 92.5 283 89.5 q161 -4 247 -101 q86 -97 70 -258 l-77 -480 q-9 -59 -15.5 -123.5 q-6.5 -64.5 14.5 -121.5 l-1 -19 l-272 0 ZM366 201 q41 -1 74.5 17.5 q33.5 18.5 60.5 46.5 l49 229 l-60 0 q-78 -3 -128 -53 q-50 -50 -60 -127 q-5 -38 6 -74.5 q11 -36.5 58 -38.5 ZM564 1536 l144 -309 l-217 0 l-221 309 l294 0 Z" /><glyph glyph-name="egrave" unicode="è" d="M804 140 q-62 -84 -164.5 -122.5 q-102.5 -38.5 -203.5 -37.5 q-218 3 -309 151.5 q-91 148.5 -70 347.5 l11 89 q17 138 74 262 q57 124 160 200 q103 76 260 72 q149 -3 224.5 -82 q75.5 -79 96.5 -198.5 q21 -119.5 6 -245.5 l-19 -129 l-538 0 q-9 -85 13 -156.5 q22 -71.5 124 -74.5 q69 -2 129.5 25 q60.5 27 111.5 71 l94 -172 ZM536 869 q-95 4 -131 -72.5 q-36 -76.5 -55 -151.5 l275 -1 l5 28 q9 62 -2 128 q-11 66 -92 69 ZM548 1537 l144 -309 l-217 0 l-221 309 l294 0 Z" /><glyph glyph-name="eacute" unicode="é" d="M804 140 q-62 -84 -164.5 -122.5 q-102.5 -38.5 -203.5 -37.5 q-218 3 -309 151.5 q-91 148.5 -70 347.5 l11 89 q17 138 74 262 q57 124 160 200 q103 76 260 72 q149 -3 224.5 -82 q75.5 -79 96.5 -198.5 q21 -119.5 6 -245.5 l-19 -129 l-538 0 q-9 -85 13 -156.5 q22 -71.5 124 -74.5 q69 -2 129.5 25 q60.5 27 111.5 71 l94 -172 ZM536 869 q-95 4 -131 -72.5 q-36 -76.5 -55 -151.5 l275 -1 l5 28 q9 62 -2 128 q-11 66 -92 69 ZM414 1228 l240 309 l325 0 l-318 -309 l-247 0 Z" /><glyph glyph-name="igrave" unicode="ì" d="M481 1082 l-188 -1082 l-276 0 l187 1082 l277 0 ZM358 1520 l144 -309 l-217 0 l-221 309 l294 0 Z" /><glyph glyph-name="ograve" unicode="ò" d="M54 505 l8 70 q16 137 75.5 259 q59.5 122 164.5 197 q105 75 258 71 q147 -3 229 -81 q82 -78 109.5 -197.5 q27.5 -119.5 14.5 -247.5 l-8 -71 q-16 -137 -75.5 -258.5 q-59.5 -121.5 -164 -196 q-104.5 -74.5 -257.5 -70.5 q-148 3 -229.5 81 q-81.5 78 -109.5 197 q-28 119 -15 247 ZM339 576 l-7 -73 q-4 -43 -6 -110.5 q-2 -67.5 19.5 -121.5 q21.5 -54 87.5 -57 q75 -5 115.5 45.5 q40.5 50.5 58.5 121 q18 70.5 24 126.5 l7 71 q3 43 4.5 110.5 q1.5 67.5 -20 122 q-21.5 54.5 -87.5 58.5 q-73 4 -113.5 -47 q-40.5 -51 -58.5 -121.5 q-18 -70.5 -24 -124.5 ZM579 1536 l144 -309 l-217 0 l-221 309 l294 0 Z" /><glyph glyph-name="oacute" unicode="ó" d="M54 505 l8 70 q16 137 75.5 259 q59.5 122 164.5 197 q105 75 258 71 q147 -3 229 -81 q82 -78 109.5 -197.5 q27.5 -119.5 14.5 -247.5 l-8 -71 q-16 -137 -75.5 -258.5 q-59.5 -121.5 -164 -196 q-104.5 -74.5 -257.5 -70.5 q-148 3 -229.5 81 q-81.5 78 -109.5 197 q-28 119 -15 247 ZM339 576 l-7 -73 q-4 -43 -6 -110.5 q-2 -67.5 19.5 -121.5 q21.5 -54 87.5 -57 q75 -5 115.5 45.5 q40.5 50.5 58.5 121 q18 70.5 24 126.5 l7 71 q3 43 4.5 110.5 q1.5 67.5 -20 122 q-21.5 54.5 -87.5 58.5 q-73 4 -113.5 -47 q-40.5 -51 -58.5 -121.5 q-18 -70.5 -24 -124.5 ZM445 1227 l240 309 l325 0 l-318 -309 l-247 0 Z" /><glyph glyph-name="ugrave" unicode="ù" d="M522 0 l19 100 q-47 -56 -105.5 -89 q-58.5 -33 -133.5 -32 q-111 2 -166 65 q-55 63 -70 155 q-15 92 -6 183 l117 700 l276 0 l-117 -703 q-5 -44 0.5 -101.5 q5.5 -57.5 66.5 -60.5 q49 -2 85.5 22 q36.5 24 64.5 61 l136 782 l278 0 l-188 -1082 l-257 0 ZM585 1536 l144 -309 l-217 0 l-221 309 l294 0 Z" /></font>
</defs>
</svg>
